<svg xmlns="http://www.w3.org/2000/svg" viewBox="0 0 512 512">
    <!-- Font Awesome Microchip Icon -->
    <path fill="#3b82f6" d="M416 48v416c0 26.5-21.5 48-48 48H144c-26.5 0-48-21.5-48-48V48c0-26.5 21.5-48 48-48h224c26.5 0 48 21.5 48 48zm96 58v12a6 6 0 0 1-6 6h-18v6a6 6 0 0 1-6 6h-42V88h42a6 6 0 0 1 6 6v6h18a6 6 0 0 1 6 6zm0 96v12a6 6 0 0 1-6 6h-18v6a6 6 0 0 1-6 6h-42v-48h42a6 6 0 0 1 6 6v6h18a6 6 0 0 1 6 6zm0 96v12a6 6 0 0 1-6 6h-18v6a6 6 0 0 1-6 6h-42v-48h42a6 6 0 0 1 6 6v6h18a6 6 0 0 1 6 6zm0 96v12a6 6 0 0 1-6 6h-18v6a6 6 0 0 1-6 6h-42v-48h42a6 6 0 0 1 6 6v6h18a6 6 0 0 1 6 6zM0 106v12a6 6 0 0 0 6 6h18v6a6 6 0 0 0 6 6h42V88H30a6 6 0 0 0-6 6v6H6a6 6 0 0 0-6 6zm0 96v12a6 6 0 0 0 6 6h18v6a6 6 0 0 0 6 6h42v-48H30a6 6 0 0 0-6 6v6H6a6 6 0 0 0-6 6zm0 96v12a6 6 0 0 0 6 6h18v6a6 6 0 0 0 6 6h42v-48H30a6 6 0 0 0-6 6v6H6a6 6 0 0 0-6 6zm0 96v12a6 6 0 0 0 6 6h18v6a6 6 0 0 0 6 6h42v-48H30a6 6 0 0 0-6 6v6H6a6 6 0 0 0-6 6zM160 64h192v384H160z"/>
</svg>
